<svg viewBox="0 0 133 93" fill="currentColor" stroke="currentColor"
    xmlns="http://www.w3.org/2000/svg">
    <g filter="url(#filter0_d_436_1976)">
        <path fill-rule="evenodd" clip-rule="evenodd"
            d="M37.823 83.54H124.375C125.87 83.54 127.083 82.326 127.083 80.831C127.083 79.337 125.87 78.123 124.375 78.123H103.075C105.274 72.211 111.393 59.545 125.892 49.742C126.272 49.485 126.566 49.148 126.767 48.768C126.912 48.496 127.012 48.197 127.056 47.881L127.068 47.789C127.078 47.693 127.083 47.596 127.083 47.498C127.083 47.422 127.08 47.347 127.074 47.273L127.064 47.174L127.061 47.147C127.05 47.061 127.034 46.976 127.015 46.893L126.961 46.693L126.913 46.551L126.901 46.521C126.829 46.334 126.735 46.153 126.619 45.981C126.362 45.601 126.025 45.307 125.645 45.106C125.599 45.081 125.552 45.058 125.504 45.036L125.472 45.021C125.422 44.999 125.372 44.979 125.321 44.96L125.208 44.92L125.136 44.898C124.933 44.83 124.687 44.791 124.393 44.79H124.375H93.619C92.257 30.767 80.421 19.79 66.042 19.79C51.662 19.79 39.826 30.767 38.464 44.79H7.708C6.214 44.79 5 46.003 5 47.498C5 48.993 6.214 50.206 7.708 50.206H74.552C66.98 52.972 59.805 56.756 53.233 61.456H7.708C6.214 61.456 5 62.67 5 64.165C5 65.659 6.214 66.873 7.708 66.873H46.394C42.508 70.273 38.893 74.032 35.604 78.123H7.708C6.214 78.123 5 79.337 5 80.831C5 82.326 6.214 83.54 7.708 83.54H35.843C36.136 83.648 36.453 83.708 36.784 83.708C36.784 83.708 37.241 83.788 37.823 83.54ZM36.737 83.54C36.752 83.595 36.768 83.651 36.784 83.708C36.784 83.708 36.782 83.647 36.778 83.54H36.737ZM97.582 50.55C76.488 52.466 56.862 62.31 42.706 78.123H67.066L71.154 72.341C77.959 62.715 87.131 55.264 97.582 50.55ZM115.657 50.844C99.617 53.209 85.08 62.026 75.577 75.468L73.7 78.123H97.34C98.871 73.395 103.661 61.507 115.657 50.844ZM88.17 44.79H43.913C45.251 33.762 54.655 25.206 66.042 25.206C77.428 25.206 86.832 33.762 88.17 44.79ZM37.135 27.586L29.637 23.257C28.343 22.51 26.685 22.954 25.938 24.249C25.19 25.543 25.635 27.201 26.929 27.948L34.426 32.277C35.721 33.024 37.379 32.58 38.126 31.286C38.873 29.991 38.429 28.333 37.135 27.586ZM97.822 32.277L105.319 27.948C106.614 27.201 107.058 25.543 106.311 24.249C105.563 22.954 103.905 22.51 102.611 23.257L95.114 27.586C93.819 28.333 93.375 29.991 94.122 31.286C94.87 32.58 96.527 33.024 97.822 32.277ZM50.986 15.718L46.657 8.22C45.91 6.926 44.252 6.482 42.957 7.229C41.663 7.977 41.219 9.634 41.966 10.929L46.295 18.426C47.042 19.721 48.7 20.165 49.994 19.417C51.289 18.67 51.733 17.012 50.986 15.718ZM85.954 18.426L90.282 10.929C91.03 9.634 90.585 7.977 89.291 7.229C87.996 6.482 86.339 6.926 85.591 8.22L81.263 15.718C80.515 17.012 80.959 18.67 82.254 19.417C83.548 20.165 85.206 19.721 85.954 18.426ZM68.75 12.365V3.708C68.75 2.213 67.536 1 66.042 1C64.547 1 63.333 2.213 63.333 3.708V12.365C63.333 13.86 64.547 15.073 66.042 15.073C67.536 15.073 68.75 13.86 68.75 12.365Z"
        />
        <path
            d="M127.209 49.0025C127.38 48.6806 127.499 48.3258 127.551 47.95L127.552 47.9457L127.564 47.8537L127.564 47.8537L127.565 47.8408C127.577 47.7273 127.583 47.613 127.583 47.498C127.583 47.4088 127.579 47.3203 127.572 47.2326L127.572 47.2326L127.571 47.2228L127.562 47.1238L127.561 47.1187L127.558 47.0917L127.558 47.0917L127.557 47.0836C127.544 46.9784 127.524 46.8771 127.502 46.7814L127.5 46.772L127.498 46.7627L127.444 46.5627L127.44 46.5476L127.435 46.5329L127.387 46.3909L127.382 46.378L127.377 46.3653L127.368 46.3413C127.367 46.3402 127.367 46.339 127.366 46.3378C127.281 46.1168 127.17 45.9035 127.034 45.7014L127.033 45.7009C126.73 45.252 126.331 44.9037 125.881 44.6654C125.824 44.6345 125.768 44.6072 125.714 44.5824C125.714 44.5821 125.713 44.5818 125.712 44.5815L125.684 44.5683L125.684 44.5681L125.673 44.5633C125.613 44.5368 125.554 44.5132 125.496 44.4915L125.496 44.4914L125.488 44.4887L125.375 44.4487L125.365 44.445L125.354 44.4418L125.288 44.4216C125.026 44.3349 124.728 44.2911 124.395 44.29H124.393H124.375H94.0691C92.475 30.23 80.5263 19.29 66.042 19.29C51.5568 19.29 39.608 30.23 38.0139 44.29H7.708C5.93798 44.29 4.5 45.7267 4.5 47.498C4.5 49.2693 5.93798 50.706 7.708 50.706H71.8456C65.2123 53.3591 58.9073 56.7992 53.0729 60.956H7.708C5.93774 60.956 4.5 62.394 4.5 64.165C4.5 65.9351 5.93786 67.373 7.708 67.373H45.078C41.6022 70.5056 38.351 73.9289 35.3648 77.623H7.708C5.93786 77.623 4.5 79.0609 4.5 80.831C4.5 82.602 5.93774 84.04 7.708 84.04H35.7576C36.069 84.1447 36.4022 84.204 36.7485 84.2078C36.7699 84.2104 36.7972 84.2131 36.8297 84.2154C36.9007 84.2204 36.9975 84.223 37.1146 84.2161C37.3266 84.2037 37.6071 84.1597 37.92 84.04H124.375C126.146 84.04 127.583 82.6019 127.583 80.831C127.583 79.061 126.146 77.623 124.375 77.623H103.801C106.179 71.5231 112.318 59.5234 126.172 50.1562L126.172 50.1562C126.622 49.8522 126.97 49.4528 127.209 49.0025ZM127.209 49.0025C127.208 49.0027 127.208 49.003 127.208 49.0032L126.767 48.768L127.209 49.0018C127.209 49.002 127.209 49.0023 127.209 49.0025ZM43.8349 77.623C57.1841 63.1104 75.2339 53.825 94.7231 51.3632C85.2934 56.1348 77.0209 63.1759 70.7457 72.0524L66.8072 77.623H43.8349ZM29.887 22.824L29.887 22.824C28.354 21.939 26.3903 22.4647 25.5051 23.9988C24.6187 25.5322 25.146 27.496 26.679 28.381C26.679 28.381 26.679 28.381 26.679 28.381L34.176 32.71L34.1762 32.7101C35.71 33.5949 37.6738 33.0693 38.559 31.536L38.5591 31.5358C39.4439 30.002 38.9183 28.0382 37.385 27.153L29.887 22.824ZM98.0718 32.7101L98.072 32.71L105.569 28.3811C107.103 27.496 107.629 25.5321 106.744 23.999L106.744 23.9989C105.858 22.4649 103.894 21.9389 102.361 22.824L102.611 23.257L102.361 22.824L94.8642 27.1529C93.3297 28.038 92.8041 30.0019 93.6889 31.5358L93.6891 31.5362C94.5752 33.0691 96.5378 33.595 98.0718 32.7101ZM42.7072 6.79589L42.7068 6.79612C41.1739 7.68223 40.648 9.64479 41.5329 11.1788L41.533 11.179L45.8619 18.6758C45.8619 18.6759 45.862 18.676 45.862 18.676C46.7471 20.2102 48.7111 20.7361 50.2442 19.8499C51.7783 18.9647 52.304 17.001 51.419 15.468L50.986 15.718L51.419 15.468L47.09 7.97C46.2048 6.43665 44.241 5.9111 42.7072 6.79589ZM86.387 18.6761L86.387 18.676L90.715 11.1791C91.6013 9.64464 91.0739 7.68207 89.5412 6.79612L89.5408 6.79589C88.0068 5.911 86.0442 6.43685 85.1581 7.96977L85.158 7.97004L80.8301 15.4678C79.9439 17.0009 80.4697 18.9647 82.0038 19.8499C83.5371 20.7362 85.5009 20.2101 86.387 18.6761ZM75.9853 75.7566C85.0815 62.89 98.829 54.2966 114.079 51.606C103.176 61.7917 98.5815 72.8105 96.978 77.623H74.6658L75.9853 75.7566ZM66.042 25.706C76.9784 25.706 86.0453 33.7817 87.5983 44.29H44.4847C46.0377 33.7817 55.1046 25.706 66.042 25.706ZM69.25 12.365V3.708C69.25 1.93674 67.812 0.5 66.042 0.5C64.2711 0.5 62.833 1.93662 62.833 3.708V12.365C62.833 14.1364 64.2711 15.573 66.042 15.573C67.812 15.573 69.25 14.1363 69.25 12.365Z"
        />
    </g>
    <defs>
        <filter id="filter0_d_436_1976" x="0" y="0" width="132.083" height="92.7202"
            filterUnits="userSpaceOnUse" color-interpolation-filters="sRGB">
            <feFlood flood-opacity="0" result="BackgroundImageFix" />
            <feColorMatrix in="SourceAlpha" type="matrix"
                values="0 0 0 0 0 0 0 0 0 0 0 0 0 0 0 0 0 0 127 0" result="hardAlpha" />
            <feOffset dy="4" />
            <feGaussianBlur stdDeviation="2" />
            <feComposite in2="hardAlpha" operator="out" />
            <feColorMatrix type="matrix" values="0 0 0 0 0 0 0 0 0 0 0 0 0 0 0 0 0 0 0.25 0" />
            <feBlend mode="normal" in2="BackgroundImageFix" result="effect1_dropShadow_436_1976" />
            <feBlend mode="normal" in="SourceGraphic" in2="effect1_dropShadow_436_1976"
                result="shape" />
        </filter>
    </defs>
</svg>