<svg viewBox="0 0 217 40" fill="currentColor" xmlns="http://www.w3.org/2000/svg">
    <g filter="url(#filter0_d_424_1974)">
        <mask id="path-1-outside-1_424_1974" maskUnits="userSpaceOnUse" x="4" y="0" width="209"
            height="32" fill="black">
            <rect fill="white" x="4" width="209" height="32" />
            <path
                d="M17.08 30.28C13.6933 30.28 10.8933 29.4933 8.68 27.92C6.49333 26.32 5.30667 23.9867 5.12 20.92H14.56C14.6933 22.5467 15.4133 23.36 16.72 23.36C17.2 23.36 17.6 23.2533 17.92 23.04C18.2667 22.8 18.44 22.44 18.44 21.96C18.44 21.2933 18.08 20.76 17.36 20.36C16.64 19.9333 15.52 19.4533 14 18.92C12.1867 18.28 10.68 17.6533 9.48 17.04C8.30667 16.4267 7.29333 15.5333 6.44 14.36C5.58667 13.1867 5.17333 11.68 5.2 9.84C5.2 8 5.66667 6.44 6.6 5.16C7.56 3.85333 8.85333 2.86667 10.48 2.2C12.1333 1.53333 13.9867 1.2 16.04 1.2C19.5067 1.2 22.2533 2 24.28 3.6C26.3333 5.2 27.4133 7.45333 27.52 10.36H17.96C17.9333 9.56 17.7333 8.98667 17.36 8.64C16.9867 8.29333 16.5333 8.12 16 8.12C15.6267 8.12 15.32 8.25333 15.08 8.52C14.84 8.76 14.72 9.10667 14.72 9.56C14.72 10.2 15.0667 10.7333 15.76 11.16C16.48 11.56 17.6133 12.0533 19.16 12.64C20.9467 13.3067 22.4133 13.9467 23.56 14.56C24.7333 15.1733 25.7467 16.0267 26.6 17.12C27.4533 18.2133 27.88 19.5867 27.88 21.24C27.88 22.9733 27.4533 24.5333 26.6 25.92C25.7467 27.28 24.5067 28.3467 22.88 29.12C21.2533 29.8933 19.32 30.28 17.08 30.28ZM49.16 25.72H39.72L38.32 30H29L39.36 1.68H49.6L59.92 30H50.56L49.16 25.72ZM47 19.04L44.44 11.16L41.88 19.04H47ZM79.0575 30L70.8175 17.72V30H61.9375V1.68H70.8175V13.6L78.9375 1.68H88.9775L79.2175 15.24L89.6175 30H79.0575ZM110.293 25.72H100.853L99.4528 30H90.1328L100.493 1.68H110.733L121.053 30H111.693L110.293 25.72ZM108.133 19.04L105.573 11.16L103.013 19.04H108.133ZM149.27 1.68V30H140.39V18.96H131.95V30H123.07V1.68H131.95V11.88H140.39V1.68H149.27ZM171.426 25.72H161.986L160.586 30H151.266L161.626 1.68H171.866L182.186 30H172.826L171.426 25.72ZM169.266 19.04L166.706 11.16L164.146 19.04H169.266ZM211.363 30H202.483L193.083 15.76V30H184.203V1.68H193.083L202.483 16.16V1.68H211.363V30Z" />
        </mask>
        <path
            d="M17.08 30.28C13.6933 30.28 10.8933 29.4933 8.68 27.92C6.49333 26.32 5.30667 23.9867 5.12 20.92H14.56C14.6933 22.5467 15.4133 23.36 16.72 23.36C17.2 23.36 17.6 23.2533 17.92 23.04C18.2667 22.8 18.44 22.44 18.44 21.96C18.44 21.2933 18.08 20.76 17.36 20.36C16.64 19.9333 15.52 19.4533 14 18.92C12.1867 18.28 10.68 17.6533 9.48 17.04C8.30667 16.4267 7.29333 15.5333 6.44 14.36C5.58667 13.1867 5.17333 11.68 5.2 9.84C5.2 8 5.66667 6.44 6.6 5.16C7.56 3.85333 8.85333 2.86667 10.48 2.2C12.1333 1.53333 13.9867 1.2 16.04 1.2C19.5067 1.2 22.2533 2 24.28 3.6C26.3333 5.2 27.4133 7.45333 27.52 10.36H17.96C17.9333 9.56 17.7333 8.98667 17.36 8.64C16.9867 8.29333 16.5333 8.12 16 8.12C15.6267 8.12 15.32 8.25333 15.08 8.52C14.84 8.76 14.72 9.10667 14.72 9.56C14.72 10.2 15.0667 10.7333 15.76 11.16C16.48 11.56 17.6133 12.0533 19.16 12.64C20.9467 13.3067 22.4133 13.9467 23.56 14.56C24.7333 15.1733 25.7467 16.0267 26.6 17.12C27.4533 18.2133 27.88 19.5867 27.88 21.24C27.88 22.9733 27.4533 24.5333 26.6 25.92C25.7467 27.28 24.5067 28.3467 22.88 29.12C21.2533 29.8933 19.32 30.28 17.08 30.28ZM49.16 25.72H39.72L38.32 30H29L39.36 1.68H49.6L59.92 30H50.56L49.16 25.72ZM47 19.04L44.44 11.16L41.88 19.04H47ZM79.0575 30L70.8175 17.72V30H61.9375V1.68H70.8175V13.6L78.9375 1.68H88.9775L79.2175 15.24L89.6175 30H79.0575ZM110.293 25.72H100.853L99.4528 30H90.1328L100.493 1.68H110.733L121.053 30H111.693L110.293 25.72ZM108.133 19.04L105.573 11.16L103.013 19.04H108.133ZM149.27 1.68V30H140.39V18.96H131.95V30H123.07V1.68H131.95V11.88H140.39V1.68H149.27ZM171.426 25.72H161.986L160.586 30H151.266L161.626 1.68H171.866L182.186 30H172.826L171.426 25.72ZM169.266 19.04L166.706 11.16L164.146 19.04H169.266ZM211.363 30H202.483L193.083 15.76V30H184.203V1.68H193.083L202.483 16.16V1.68H211.363V30Z"
        />
        <path
            d="M8.68 27.92L8.08943 28.7271L8.10062 28.7351L8.68 27.92ZM5.12 20.92V19.92H4.05728L4.12185 20.9808L5.12 20.92ZM14.56 20.92L15.5567 20.8383L15.4814 19.92H14.56V20.92ZM17.92 23.04L18.4747 23.872L18.482 23.8672L18.4892 23.8622L17.92 23.04ZM17.36 20.36L16.8502 21.2203L16.8622 21.2274L16.8744 21.2342L17.36 20.36ZM14 18.92L13.6672 19.863L13.6689 19.8636L14 18.92ZM9.48 17.04L9.01673 17.9263L9.02489 17.9304L9.48 17.04ZM6.44 14.36L7.24874 13.7718L7.24874 13.7718L6.44 14.36ZM5.2 9.84L6.1999 9.85449L6.2 9.84725V9.84H5.2ZM6.6 5.16L5.79411 4.56792L5.79199 4.57083L6.6 5.16ZM10.48 2.2L10.106 1.27254L10.1008 1.27469L10.48 2.2ZM24.28 3.6L23.6603 4.3849L23.6654 4.3888L24.28 3.6ZM27.52 10.36V11.36H28.5574L28.5193 10.3233L27.52 10.36ZM17.96 10.36L16.9606 10.3933L16.9928 11.36H17.96V10.36ZM15.08 8.52L15.7871 9.22711L15.8057 9.20851L15.8233 9.18896L15.08 8.52ZM15.76 11.16L15.2359 12.0117L15.2549 12.0233L15.2744 12.0342L15.76 11.16ZM19.16 12.64L18.8053 13.575L18.8104 13.5769L19.16 12.64ZM23.56 14.56L23.0883 15.4418L23.0967 15.4462L23.56 14.56ZM26.6 17.12L25.8117 17.7353L25.8117 17.7353L26.6 17.12ZM26.6 25.92L27.4471 26.4515L27.4517 26.4441L26.6 25.92ZM22.88 29.12L22.4506 28.2169L22.88 29.12ZM17.08 29.28C13.8492 29.28 11.2656 28.5311 9.25938 27.1049L8.10062 28.7351C10.521 30.4556 13.5375 31.28 17.08 31.28V29.28ZM9.27051 27.113C7.35792 25.7135 6.28946 23.6736 6.11815 20.8592L4.12185 20.9808C4.32387 24.2998 5.62875 26.9265 8.08949 28.727L9.27051 27.113ZM5.12 21.92H14.56V19.92H5.12V21.92ZM13.5633 21.0017C13.6392 21.9276 13.8921 22.7812 14.4512 23.4128C15.0394 24.0772 15.8437 24.36 16.72 24.36V22.36C16.2896 22.36 16.0806 22.2361 15.9488 22.0872C15.7879 21.9055 15.6141 21.539 15.5567 20.8383L13.5633 21.0017ZM16.72 24.36C17.3483 24.36 17.9539 24.2193 18.4747 23.872L17.3653 22.2079C17.2461 22.2874 17.0517 22.36 16.72 22.36V24.36ZM18.4892 23.8622C19.1463 23.4073 19.44 22.7155 19.44 21.96H17.44C17.44 22.0796 17.4187 22.1361 17.409 22.1562C17.4016 22.1715 17.3899 22.1907 17.3508 22.2178L18.4892 23.8622ZM19.44 21.96C19.44 20.8395 18.795 20.0133 17.8456 19.4858L16.8744 21.2342C17.365 21.5067 17.44 21.7472 17.44 21.96H19.44ZM17.8698 19.4997C17.0627 19.0214 15.8674 18.5155 14.3311 17.9764L13.6689 19.8636C15.1726 20.3912 16.2173 20.8452 16.8502 21.2203L17.8698 19.4997ZM14.3328 17.977C12.5453 17.3461 11.0828 16.7362 9.93511 16.1496L9.02489 17.9304C10.2772 18.5705 11.828 19.2139 13.6672 19.863L14.3328 17.977ZM9.94325 16.1538C8.91922 15.6185 8.02024 14.8326 7.24874 13.7718L5.63126 14.9482C6.56642 16.234 7.69412 17.2349 9.01675 17.9262L9.94325 16.1538ZM7.24874 13.7718C6.55326 12.8155 6.17551 11.5368 6.1999 9.85449L4.20011 9.82551C4.17115 11.8232 4.62007 13.5578 5.63126 14.9482L7.24874 13.7718ZM6.2 9.84C6.2 8.17635 6.6188 6.83151 7.40801 5.74917L5.79199 4.57083C4.71453 6.04849 4.2 7.82365 4.2 9.84H6.2ZM7.40588 5.75207C8.24788 4.60603 9.38785 3.72832 10.8592 3.1253L10.1008 1.27469C8.31881 2.00501 6.87212 3.10064 5.79412 4.56792L7.40588 5.75207ZM10.854 3.12744C12.3718 2.51541 14.0956 2.2 16.04 2.2V0.199999C13.8778 0.199999 11.8949 0.551258 10.106 1.27256L10.854 3.12744ZM16.04 2.2C19.3586 2.2 21.8622 2.96532 23.6604 4.38488L24.8996 2.81512C22.6444 1.03468 19.6547 0.199999 16.04 0.199999V2.2ZM23.6654 4.3888C25.4565 5.78452 26.4234 7.74622 26.5207 10.3967L28.5193 10.3233C28.4033 7.16045 27.2101 4.61548 24.8947 2.8112L23.6654 4.3888ZM27.52 9.36H17.96V11.36H27.52V9.36ZM18.9594 10.3267C18.9288 9.40802 18.6957 8.51569 18.0405 7.90721L16.6795 9.37279C16.7709 9.45764 16.9378 9.71198 16.9606 10.3933L18.9594 10.3267ZM18.0405 7.90721C17.4728 7.38012 16.7727 7.12 16 7.12V9.12C16.2939 9.12 16.5005 9.20654 16.6795 9.37279L18.0405 7.90721ZM16 7.12C15.3562 7.12 14.7749 7.36413 14.3367 7.85104L15.8233 9.18896C15.8651 9.14253 15.8971 9.12 16 9.12V7.12ZM14.3729 7.81289C13.8891 8.29671 13.72 8.93336 13.72 9.56H15.72C15.72 9.41943 15.7388 9.33377 15.755 9.28711C15.7696 9.24504 15.7826 9.2316 15.7871 9.22711L14.3729 7.81289ZM13.72 9.56C13.72 10.6431 14.3388 11.4596 15.2359 12.0117L16.2841 10.3083C15.7945 10.007 15.72 9.75688 15.72 9.56H13.72ZM15.2744 12.0342C16.0601 12.4707 17.249 12.9847 18.8053 13.575L19.5147 11.705C17.9777 11.122 16.8999 10.6493 16.2456 10.2858L15.2744 12.0342ZM18.8104 13.5769C20.5726 14.2344 21.9946 14.8568 23.0883 15.4418L24.0317 13.6782C22.832 13.0366 21.3207 12.3789 19.5096 11.7031L18.8104 13.5769ZM23.0967 15.4462C24.1376 15.9903 25.0419 16.7489 25.8117 17.7353L27.3883 16.5047C26.4515 15.3044 25.329 14.3563 24.0233 13.6738L23.0967 15.4462ZM25.8117 17.7353C26.5028 18.6208 26.88 19.7653 26.88 21.24H28.88C28.88 19.4081 28.4038 17.8058 27.3883 16.5047L25.8117 17.7353ZM26.88 21.24C26.88 22.8007 26.4984 24.1771 25.7483 25.3959L27.4517 26.4441C28.4083 24.8895 28.88 23.1459 28.88 21.24H26.88ZM25.7529 25.3885C25.0127 26.5683 23.9271 27.5149 22.4506 28.2169L23.3094 30.0231C25.0862 29.1784 26.4807 27.9917 27.4471 26.4515L25.7529 25.3885ZM22.4506 28.2169C20.9867 28.9128 19.2068 29.28 17.08 29.28V31.28C19.4332 31.28 21.5199 30.8738 23.3094 30.0231L22.4506 28.2169ZM49.16 25.72L50.1104 25.4091L49.885 24.72H49.16V25.72ZM39.72 25.72V24.72H38.995L38.7696 25.4091L39.72 25.72ZM38.32 30V31H39.045L39.2704 30.3109L38.32 30ZM29 30L28.0609 29.6564L27.5694 31H29V30ZM39.36 1.68V0.68H38.661L38.4209 1.33645L39.36 1.68ZM49.6 1.68L50.5396 1.33762L50.2999 0.68H49.6V1.68ZM59.92 30V31H61.3487L60.8596 29.6576L59.92 30ZM50.56 30L49.6096 30.3109L49.835 31H50.56V30ZM47 19.04V20.04H48.3763L47.9511 18.731L47 19.04ZM44.44 11.16L45.3911 10.851L44.44 7.92351L43.4889 10.851L44.44 11.16ZM41.88 19.04L40.9289 18.731L40.5037 20.04H41.88V19.04ZM49.16 24.72H39.72V26.72H49.16V24.72ZM38.7696 25.4091L37.3696 29.6891L39.2704 30.3109L40.6704 26.0309L38.7696 25.4091ZM38.32 29H29V31H38.32V29ZM29.9391 30.3436L40.2991 2.02355L38.4209 1.33645L28.0609 29.6564L29.9391 30.3436ZM39.36 2.68H49.6V0.68H39.36V2.68ZM48.6604 2.02238L58.9804 30.3424L60.8596 29.6576L50.5396 1.33762L48.6604 2.02238ZM59.92 29H50.56V31H59.92V29ZM51.5104 29.6891L50.1104 25.4091L48.2096 26.0309L49.6096 30.3109L51.5104 29.6891ZM47.9511 18.731L45.3911 10.851L43.4889 11.469L46.0489 19.349L47.9511 18.731ZM43.4889 10.851L40.9289 18.731L42.8311 19.349L45.3911 11.469L43.4889 10.851ZM41.88 20.04H47V18.04H41.88V20.04ZM79.0575 30L78.2271 30.5572L78.5242 31H79.0575V30ZM70.8175 17.72L71.6479 17.1628L69.8175 14.435V17.72H70.8175ZM70.8175 30V31H71.8175V30H70.8175ZM61.9375 30H60.9375V31H61.9375V30ZM61.9375 1.68V0.68H60.9375V1.68H61.9375ZM70.8175 1.68H71.8175V0.68H70.8175V1.68ZM70.8175 13.6H69.8175V16.8442L71.644 14.163L70.8175 13.6ZM78.9375 1.68V0.68H78.4087L78.111 1.11701L78.9375 1.68ZM88.9775 1.68L89.7891 2.26418L90.9294 0.68H88.9775V1.68ZM79.2175 15.24L78.4059 14.6558L77.9898 15.2338L78.4 15.816L79.2175 15.24ZM89.6175 30V31H91.5454L90.435 29.424L89.6175 30ZM79.8879 29.4428L71.6479 17.1628L69.9871 18.2772L78.2271 30.5572L79.8879 29.4428ZM69.8175 17.72V30H71.8175V17.72H69.8175ZM70.8175 29H61.9375V31H70.8175V29ZM62.9375 30V1.68H60.9375V30H62.9375ZM61.9375 2.68H70.8175V0.68H61.9375V2.68ZM69.8175 1.68V13.6H71.8175V1.68H69.8175ZM71.644 14.163L79.764 2.24299L78.111 1.11701L69.991 13.037L71.644 14.163ZM78.9375 2.68H88.9775V0.68H78.9375V2.68ZM88.1659 1.09582L78.4059 14.6558L80.0291 15.8242L89.7891 2.26418L88.1659 1.09582ZM78.4 15.816L88.8 30.576L90.435 29.424L80.035 14.664L78.4 15.816ZM89.6175 29H79.0575V31H89.6175V29ZM110.293 25.72L111.243 25.4091L111.018 24.72H110.293V25.72ZM100.853 25.72V24.72H100.128L99.9024 25.4091L100.853 25.72ZM99.4528 30V31H100.178L100.403 30.3109L99.4528 30ZM90.1328 30L89.1937 29.6564L88.7022 31H90.1328V30ZM100.493 1.68V0.68H99.7938L99.5537 1.33645L100.493 1.68ZM110.733 1.68L111.672 1.33762L111.433 0.68H110.733V1.68ZM121.053 30V31H122.482L121.992 29.6576L121.053 30ZM111.693 30L110.742 30.3109L110.968 31H111.693V30ZM108.133 19.04V20.04H109.509L109.084 18.731L108.133 19.04ZM105.573 11.16L106.524 10.851L105.573 7.92351L104.622 10.851L105.573 11.16ZM103.013 19.04L102.062 18.731L101.636 20.04H103.013V19.04ZM110.293 24.72H100.853V26.72H110.293V24.72ZM99.9024 25.4091L98.5024 29.6891L100.403 30.3109L101.803 26.0309L99.9024 25.4091ZM99.4528 29H90.1328V31H99.4528V29ZM91.0719 30.3436L101.432 2.02355L99.5537 1.33645L89.1937 29.6564L91.0719 30.3436ZM100.493 2.68H110.733V0.68H100.493V2.68ZM109.793 2.02238L120.113 30.3424L121.992 29.6576L111.672 1.33762L109.793 2.02238ZM121.053 29H111.693V31H121.053V29ZM112.643 29.6891L111.243 25.4091L109.342 26.0309L110.742 30.3109L112.643 29.6891ZM109.084 18.731L106.524 10.851L104.622 11.469L107.182 19.349L109.084 18.731ZM104.622 10.851L102.062 18.731L103.964 19.349L106.524 11.469L104.622 10.851ZM103.013 20.04H108.133V18.04H103.013V20.04ZM149.27 1.68H150.27V0.68H149.27V1.68ZM149.27 30V31H150.27V30H149.27ZM140.39 30H139.39V31H140.39V30ZM140.39 18.96H141.39V17.96H140.39V18.96ZM131.95 18.96V17.96H130.95V18.96H131.95ZM131.95 30V31H132.95V30H131.95ZM123.07 30H122.07V31H123.07V30ZM123.07 1.68V0.68H122.07V1.68H123.07ZM131.95 1.68H132.95V0.68H131.95V1.68ZM131.95 11.88H130.95V12.88H131.95V11.88ZM140.39 11.88V12.88H141.39V11.88H140.39ZM140.39 1.68V0.68H139.39V1.68H140.39ZM148.27 1.68V30H150.27V1.68H148.27ZM149.27 29H140.39V31H149.27V29ZM141.39 30V18.96H139.39V30H141.39ZM140.39 17.96H131.95V19.96H140.39V17.96ZM130.95 18.96V30H132.95V18.96H130.95ZM131.95 29H123.07V31H131.95V29ZM124.07 30V1.68H122.07V30H124.07ZM123.07 2.68H131.95V0.68H123.07V2.68ZM130.95 1.68V11.88H132.95V1.68H130.95ZM131.95 12.88H140.39V10.88H131.95V12.88ZM141.39 11.88V1.68H139.39V11.88H141.39ZM140.39 2.68H149.27V0.68H140.39V2.68ZM171.426 25.72L172.376 25.4091L172.151 24.72H171.426V25.72ZM161.986 25.72V24.72H161.261L161.035 25.4091L161.986 25.72ZM160.586 30V31H161.311L161.536 30.3109L160.586 30ZM151.266 30L150.326 29.6564L149.835 31H151.266V30ZM161.626 1.68V0.68H160.927L160.686 1.33645L161.626 1.68ZM171.866 1.68L172.805 1.33762L172.566 0.68H171.866V1.68ZM182.186 30V31H183.614L183.125 29.6576L182.186 30ZM172.826 30L171.875 30.3109L172.101 31H172.826V30ZM169.266 19.04V20.04H170.642L170.217 18.731L169.266 19.04ZM166.706 11.16L167.657 10.851L166.706 7.92351L165.755 10.851L166.706 11.16ZM164.146 19.04L163.195 18.731L162.769 20.04H164.146V19.04ZM171.426 24.72H161.986V26.72H171.426V24.72ZM161.035 25.4091L159.635 29.6891L161.536 30.3109L162.936 26.0309L161.035 25.4091ZM160.586 29H151.266V31H160.586V29ZM152.205 30.3436L162.565 2.02355L160.686 1.33645L150.326 29.6564L152.205 30.3436ZM161.626 2.68H171.866V0.68H161.626V2.68ZM170.926 2.02238L181.246 30.3424L183.125 29.6576L172.805 1.33762L170.926 2.02238ZM182.186 29H172.826V31H182.186V29ZM173.776 29.6891L172.376 25.4091L170.475 26.0309L171.875 30.3109L173.776 29.6891ZM170.217 18.731L167.657 10.851L165.755 11.469L168.315 19.349L170.217 18.731ZM165.755 10.851L163.195 18.731L165.097 19.349L167.657 11.469L165.755 10.851ZM164.146 20.04H169.266V18.04H164.146V20.04ZM211.363 30V31H212.363V30H211.363ZM202.483 30L201.649 30.5509L201.945 31H202.483V30ZM193.083 15.76L193.918 15.2091L192.083 12.4299V15.76H193.083ZM193.083 30V31H194.083V30H193.083ZM184.203 30H183.203V31H184.203V30ZM184.203 1.68V0.68H183.203V1.68H184.203ZM193.083 1.68L193.922 1.1355L193.626 0.68H193.083V1.68ZM202.483 16.16L201.644 16.7045L203.483 19.537V16.16H202.483ZM202.483 1.68V0.68H201.483V1.68H202.483ZM211.363 1.68H212.363V0.68H211.363V1.68ZM211.363 29H202.483V31H211.363V29ZM203.318 29.4491L193.918 15.2091L192.249 16.3109L201.649 30.5509L203.318 29.4491ZM192.083 15.76V30H194.083V15.76H192.083ZM193.083 29H184.203V31H193.083V29ZM185.203 30V1.68H183.203V30H185.203ZM184.203 2.68H193.083V0.68H184.203V2.68ZM192.244 2.2245L201.644 16.7045L203.322 15.6155L193.922 1.1355L192.244 2.2245ZM203.483 16.16V1.68H201.483V16.16H203.483ZM202.483 2.68H211.363V0.68H202.483V2.68ZM210.363 1.68V30H212.363V1.68H210.363Z"
            mask="url(#path-1-outside-1_424_1974)" />
    </g>
    <defs>
        <filter id="filter0_d_424_1974" x="0.057251" y="0.199951" width="216.306" height="39.0801"
            filterUnits="userSpaceOnUse" color-interpolation-filters="sRGB">
            <feFlood flood-opacity="0" result="BackgroundImageFix" />
            <feColorMatrix in="SourceAlpha" type="matrix"
                values="0 0 0 0 0 0 0 0 0 0 0 0 0 0 0 0 0 0 127 0" result="hardAlpha" />
            <feOffset dy="4" />
            <feGaussianBlur stdDeviation="2" />
            <feComposite in2="hardAlpha" operator="out" />
            <feColorMatrix type="matrix" values="0 0 0 0 0 0 0 0 0 0 0 0 0 0 0 0 0 0 0.25 0" />
            <feBlend mode="normal" in2="BackgroundImageFix" result="effect1_dropShadow_424_1974" />
            <feBlend mode="normal" in="SourceGraphic" in2="effect1_dropShadow_424_1974"
                result="shape" />
        </filter>
    </defs>
</svg>