<svg viewBox="0 0 26 26" fill="currentColor" stroke="currentColor"
    xmlns="http://www.w3.org/2000/svg">
    <path
        d="M25 4.42745C25.0016 3.53565 24.6549 2.67846 24.0338 2.0385C23.4127 1.39854 22.5662 1.02639 21.6747 1.00135C20.7832 0.976308 19.9172 1.30034 19.2611 1.90443C18.605 2.50851 18.2108 3.34488 18.1623 4.23537L7.50262 6.36681C7.25334 5.84886 6.87752 5.40208 6.40989 5.06779C5.94225 4.73349 5.39789 4.52245 4.82711 4.45418C4.25634 4.38591 3.67756 4.4626 3.14427 4.67718C2.61097 4.89175 2.14037 5.23728 1.77595 5.68183C1.41154 6.12639 1.16506 6.65562 1.0593 7.22063C0.953535 7.78563 0.991905 8.36818 1.17086 8.91444C1.34981 9.46069 1.66358 9.95303 2.08316 10.346C2.50274 10.7389 3.01459 11.0197 3.57142 11.1625V18.2629C2.98666 18.4128 2.45199 18.7148 2.02168 19.1382C1.59138 19.5616 1.28077 20.0913 1.12139 20.6736C0.96201 21.2558 0.959531 21.8698 1.11421 22.4533C1.26888 23.0368 1.5752 23.569 2.00207 23.9959C2.42894 24.4227 2.96116 24.729 3.54469 24.8837C4.12822 25.0384 4.74229 25.0359 5.32456 24.8765C5.90682 24.7171 6.43655 24.4066 6.85996 23.9763C7.28336 23.546 7.58538 23.0113 7.73534 22.4266H14.8361C14.9786 22.9839 15.2593 23.4962 15.6523 23.9162C16.0453 24.3363 16.5378 24.6504 17.0844 24.8297C17.631 25.0089 18.2139 25.0474 18.7794 24.9417C19.3448 24.836 19.8744 24.5894 20.3192 24.2247C20.7641 23.8601 21.1098 23.3892 21.3245 22.8555C21.5391 22.3218 21.6157 21.7427 21.5471 21.1716C21.4786 20.6005 21.2672 20.0559 20.9324 19.5882C20.5976 19.1204 20.1503 18.7447 19.6318 18.4956L21.7635 7.83657C22.6362 7.78875 23.4576 7.40902 24.0593 6.77518C24.661 6.14135 24.9976 5.3014 25 4.42745ZM21.5714 2.71324C21.9105 2.71324 22.2419 2.81378 22.5238 3.00214C22.8057 3.1905 23.0255 3.45822 23.1552 3.77145C23.285 4.08468 23.3189 4.42935 23.2528 4.76187C23.1866 5.0944 23.0234 5.39984 22.7836 5.63957C22.5439 5.87931 22.2384 6.04257 21.9059 6.10872C21.5733 6.17486 21.2286 6.14091 20.9154 6.01117C20.6022 5.88142 20.3344 5.66171 20.146 5.37981C19.9577 5.09791 19.8571 4.76649 19.8571 4.42745C19.8577 3.97297 20.0384 3.53726 20.3598 3.2159C20.6812 2.89454 21.1169 2.71376 21.5714 2.71324ZM2.71428 7.85586C2.71428 7.51682 2.81482 7.1854 3.00319 6.9035C3.19156 6.6216 3.45929 6.40188 3.77254 6.27214C4.08578 6.1424 4.43047 6.10845 4.763 6.17459C5.09554 6.24073 5.401 6.404 5.64075 6.64373C5.8805 6.88347 6.04376 7.18891 6.10991 7.52143C6.17606 7.85396 6.14211 8.19863 6.01236 8.51186C5.88261 8.82509 5.66288 9.09281 5.38097 9.28117C5.09906 9.46953 4.76762 9.57006 4.42856 9.57006C3.97407 9.56954 3.53834 9.38877 3.21696 9.06741C2.89558 8.74605 2.7148 8.31033 2.71428 7.85586ZM4.42856 23.2837C4.08951 23.2837 3.75807 23.1832 3.47616 22.9948C3.19425 22.8065 2.97452 22.5387 2.84477 22.2255C2.71502 21.9123 2.68107 21.5676 2.74722 21.2351C2.81336 20.9026 2.97663 20.5971 3.21638 20.3574C3.45613 20.1176 3.76159 19.9544 4.09412 19.8882C4.42666 19.8221 4.77135 19.856 5.08459 19.9858C5.39784 20.1155 5.66557 20.3352 5.85394 20.6171C6.04231 20.899 6.14285 21.2305 6.14285 21.5695C6.14233 22.024 5.96155 22.4597 5.64017 22.7811C5.31879 23.1024 4.88306 23.2832 4.42856 23.2837ZM14.8361 20.7124H7.73534C7.58178 20.1232 7.27382 19.5855 6.84323 19.155C6.41263 18.7244 5.87498 18.4164 5.28571 18.2629V11.1625C5.98605 10.9804 6.61051 10.5807 7.06912 10.0209C7.52774 9.46122 7.79685 8.77038 7.83768 8.04794L18.4974 5.91649C18.8335 6.60725 19.3917 7.1653 20.0825 7.50136L17.9508 18.1604C17.2283 18.2013 16.5374 18.4704 15.9777 18.929C15.4179 19.3876 15.0182 20.0121 14.8361 20.7124ZM18.1429 23.2837C17.8038 23.2837 17.4724 23.1832 17.1904 22.9948C16.9085 22.8065 16.6888 22.5387 16.5591 22.2255C16.4293 21.9123 16.3954 21.5676 16.4615 21.2351C16.5277 20.9026 16.6909 20.5971 16.9307 20.3574C17.1704 20.1176 17.4759 19.9544 17.8084 19.8882C18.141 19.8221 18.4856 19.856 18.7989 19.9858C19.1121 20.1155 19.3799 20.3352 19.5682 20.6171C19.7566 20.899 19.8571 21.2305 19.8571 21.5695C19.8566 22.024 19.6758 22.4597 19.3545 22.7811C19.0331 23.1024 18.5973 23.2832 18.1429 23.2837Z"
    />
</svg>