<svg viewBox="0 0 24 24" fill="currentColor" stroke="currentColor"
    xmlns="http://www.w3.org/2000/svg">
    <path d="M22.5 20.25H5.25V21.75H22.5V20.25Z" />
    <path
        d="M20.5353 7.88262L14.5878 1.94262C14.4485 1.80315 14.2831 1.69251 14.101 1.61703C13.9189 1.54154 13.7237 1.50269 13.5266 1.50269C13.3294 1.50269 13.1343 1.54154 12.9522 1.61703C12.7701 1.69251 12.6046 1.80315 12.4653 1.94262L1.96532 12.4426C1.82586 12.5819 1.71522 12.7474 1.63973 12.9295C1.56424 13.1116 1.52539 13.3067 1.52539 13.5039C1.52539 13.701 1.56424 13.8962 1.63973 14.0783C1.71522 14.2604 1.82586 14.4258 1.96532 14.5651L5.34782 18.0001H12.5403L20.5353 10.0051C20.6748 9.86581 20.7854 9.70037 20.8609 9.51828C20.9364 9.33618 20.9753 9.14099 20.9753 8.94387C20.9753 8.74674 20.9364 8.55155 20.8609 8.36945C20.7854 8.18736 20.6748 8.02192 20.5353 7.88262ZM11.9178 16.5001H6.00032L3.00032 13.5001L7.73282 8.76761L13.6803 14.7076L11.9178 16.5001ZM14.7378 13.6801L8.79782 7.73262L13.5003 3.00012L19.5003 8.94762L14.7378 13.6801Z"
    />
</svg>