<svg viewBox="0 0 26 26" fill="currentColor" stroke="currentColor"
    xmlns="http://www.w3.org/2000/svg">
    <path
        d="M23.5998 2.16388C22.7823 1.38088 21.8815 0.984131 20.9193 0.984131C19.4148 0.984131 18.3168 1.95613 18.0168 2.25388C17.5938 2.67238 3.17727 17.0949 3.17727 17.0949C3.08277 17.1894 3.01452 17.3079 2.97927 17.4369C2.65452 18.6384 1.02552 23.9694 1.00902 24.0234C0.925015 24.2964 1.00002 24.5941 1.20102 24.7951C1.34577 24.9391 1.53852 25.0164 1.73577 25.0164C1.81377 25.0164 1.89177 25.0044 1.96827 24.9796C2.02302 24.9616 7.52577 23.1834 8.43177 22.9126C8.55102 22.8766 8.66052 22.8121 8.74902 22.7244C9.32127 22.1589 22.7673 8.86213 23.6598 7.94038C24.583 6.98938 25.042 5.99788 25.024 4.99663C25.0053 4.00738 24.526 3.05488 23.5983 2.16463L23.5998 2.16388ZM17.7775 4.65238C18.1593 4.74463 19.0608 5.04763 19.981 5.97613C20.911 6.91438 21.1623 7.98688 21.2095 8.23138C18.2605 11.1654 11.4723 17.8816 8.79627 20.5284C8.54952 19.9531 8.14977 19.2594 7.50702 18.6121C6.72252 17.8216 5.92377 17.3754 5.30802 17.1241C7.95627 14.4751 14.8728 7.55638 17.7768 4.65313L17.7775 4.65238ZM4.29027 18.3894C4.70277 18.4989 5.55852 18.8169 6.43077 19.6959C7.10277 20.3739 7.42002 21.1209 7.56252 21.5769C6.52002 21.9121 4.23702 22.6996 2.78727 23.1676C3.21702 21.7531 3.94302 19.5511 4.29027 18.3894ZM22.5723 6.86788C22.5415 6.89938 22.4905 6.95038 22.4298 7.01188C22.1928 6.40138 21.7773 5.61688 21.0565 4.89088C20.3208 4.14913 19.5745 3.71188 18.9768 3.45313C19.0278 3.40288 19.0668 3.36313 19.0825 3.34813C19.168 3.26338 19.9473 2.51863 20.9178 2.51863C21.4765 2.51863 22.0255 2.77363 22.549 3.27613C23.17 3.87238 23.491 4.46038 23.5015 5.02438C23.512 5.60038 23.1993 6.22063 22.5723 6.86788Z"
    />
</svg>