<svg viewBox="0 0 24 24" fill="currentColor" stroke="currentColor"
    xmlns="http://www.w3.org/2000/svg">
    <path
        d="M15.75 1.18945L1.93945 15L8.99995 22.0605L22.8105 8.24995L15.75 1.18945ZM4.06045 15L15.75 3.31045L20.6895 8.24995L19.875 9.06445L18.5302 7.7197L17.4697 8.7802L18.8145 10.125L17.625 11.3145L14.7802 8.4697L13.7197 9.5302L16.5645 12.375L15.375 13.5645L14.0302 12.2197L12.9697 13.2802L14.3145 14.625L13.125 15.8145L11.7802 14.4697L10.7197 15.5302L12.0645 16.875L10.875 18.0645L8.0302 15.2197L6.9697 16.2802L9.81445 19.125L8.99995 19.9395L4.06045 15Z"
        stroke-width="0.5" />
</svg>