<svg viewBox="0 0 24 24" fill="currentColor" xmlns="http://www.w3.org/2000/svg">
    <path
        d="M20 8L21.0607 9.06066L22.1213 8L21.0607 6.93934L20 8ZM15 20.5C15.8284 20.5 16.5 19.8284 16.5 19C16.5 18.1716 15.8284 17.5 15 17.5L15 20.5ZM16.0607 14.0607L21.0607 9.06066L18.9393 6.93934L13.9393 11.9393L16.0607 14.0607ZM21.0607 6.93934L16.0607 1.93934L13.9393 4.06066L18.9393 9.06066L21.0607 6.93934ZM20 6.5L9.5 6.5L9.5 9.5L20 9.5L20 6.5ZM9.5 20.5L15 20.5L15 17.5L9.5 17.5L9.5 20.5ZM2.5 13.5C2.5 17.366 5.63401 20.5 9.5 20.5L9.5 17.5C7.29086 17.5 5.5 15.7091 5.5 13.5L2.5 13.5ZM9.5 6.5C5.63401 6.5 2.5 9.63401 2.5 13.5L5.5 13.5C5.5 11.2909 7.29086 9.5 9.5 9.5L9.5 6.5Z"
    />
</svg>