<svg viewBox="0 0 24 24" fill="currentColor" xmlns="http://www.w3.org/2000/svg">
    <path
        d="M4 8L2.93934 9.06066L1.87868 8L2.93934 6.93934L4 8ZM9 20.5C8.17157 20.5 7.5 19.8284 7.5 19C7.5 18.1716 8.17157 17.5 9 17.5L9 20.5ZM7.93934 14.0607L2.93934 9.06066L5.06066 6.93934L10.0607 11.9393L7.93934 14.0607ZM2.93934 6.93934L7.93934 1.93934L10.0607 4.06066L5.06066 9.06066L2.93934 6.93934ZM4 6.5L14.5 6.5L14.5 9.5L4 9.5L4 6.5ZM14.5 20.5L9 20.5L9 17.5L14.5 17.5L14.5 20.5ZM21.5 13.5C21.5 17.366 18.366 20.5 14.5 20.5L14.5 17.5C16.7091 17.5 18.5 15.7091 18.5 13.5L21.5 13.5ZM14.5 6.5C18.366 6.5 21.5 9.63401 21.5 13.5L18.5 13.5C18.5 11.2909 16.7091 9.5 14.5 9.5L14.5 6.5Z"
    />
</svg>