<svg viewBox="0 0 24 24" fill="currentColor" xmlns="http://www.w3.org/2000/svg">
    <path
        d="M12 5L10.9393 3.93934L12 2.87868L13.0607 3.93934L12 5ZM13.5 14C13.5 14.8284 12.8284 15.5 12 15.5C11.1716 15.5 10.5 14.8284 10.5 14L13.5 14ZM5.93934 8.93934L10.9393 3.93934L13.0607 6.06066L8.06066 11.0607L5.93934 8.93934ZM13.0607 3.93934L18.0607 8.93934L15.9393 11.0607L10.9393 6.06066L13.0607 3.93934ZM13.5 5L13.5 14L10.5 14L10.5 5L13.5 5Z"
        fill="#8D6E63" />
    <path d="M5 16L5 17C5 18.1046 5.89543 19 7 19L17 19C18.1046 19 19 18.1046 19 17V16"
        stroke="#8D6E63" stroke-width="3" />
</svg>